<svg width="111" height="26" viewBox="0 0 111 26" fill="none" xmlns="http://www.w3.org/2000/svg">
<path d="M12.8485 0.58606L0 25.6705H5.2531L7.81191 20.3806H23.0052L12.8485 0.58606ZM12.8545 9.69874L16.1395 16.5578H9.60979L12.8545 9.69874Z" fill="#28ABB8"/>
<path d="M111 13.1175C111 15.1548 110.849 16.4375 110.012 18.0867L104.282 18.0614C105.512 16.5985 105.681 15.3383 105.681 13.1175C105.681 10.6285 104.928 8.62806 103.421 7.11599C101.914 5.60392 99.9321 4.8496 97.4741 4.85303C95.0172 4.85303 93.035 5.60735 91.5276 7.11599C90.0201 8.62463 89.2667 10.6251 89.2674 13.1175C89.2674 15.5795 90.0228 17.5769 91.5336 19.1096C93.0444 20.6422 95.0244 21.4068 97.4736 21.4034C98.635 21.4034 99.6912 21.231 100.642 20.8861H108.26C107.903 21.3086 107.518 21.71 107.107 22.0878C104.511 24.4744 101.3 25.6686 97.4747 25.6704C93.6496 25.6723 90.4383 24.4781 87.8407 22.0878C85.2441 19.6957 83.9458 16.7055 83.9458 13.1175C83.9458 9.52937 85.2441 6.54471 87.8407 4.16347C90.4373 1.77693 93.6479 0.58444 97.4726 0.586C101.297 0.587561 104.508 1.78005 107.105 4.16347C109.702 6.54502 111 9.52968 111 13.1175Z" fill="#28ABB8"/>
<path d="M87.0566 25.6704H80.47L70.5837 13.1226V25.6704H65.3488V0.585999H70.5837V11.0778L80.2363 0.585999H86.3929L75.235 12.1405L87.0566 25.6704Z" fill="#28ABB8"/>
<path d="M46.1699 18.3882V0.585999H61.758V4.90406H51.4784V10.2497H60.6274V14.3622H51.4784V18.3882H46.1699ZM61.758 25.6704H46.1699V21.3529H61.758V25.6704Z" fill="#28ABB8"/>
<path d="M42.6633 15.1698C42.2514 14.3065 41.6743 13.5964 40.9325 13.05C40.1907 12.5037 39.3209 12.1456 38.3334 11.9874C39.3662 11.6808 40.1796 11.0933 40.7728 10.2352C41.3661 9.37707 41.6687 8.36544 41.6687 7.19604C41.6687 6.02664 41.3228 4.93262 40.6303 3.8957C39.9668 2.88501 39.0082 2.07023 37.866 1.54614C36.9931 1.10672 35.9434 0.822408 34.717 0.693203C33.7829 0.621423 32.4348 0.585688 30.6725 0.586001H17.6735L19.9855 5.09131H31.6691C32.9825 5.09131 33.6972 5.10161 33.8236 5.12689C34.2205 5.12683 34.6138 5.19787 34.9819 5.33615C35.3431 5.46555 35.6723 5.66194 35.9493 5.91336C36.4327 6.3225 36.6745 6.87397 36.6745 7.55182C36.6714 8.03949 36.5189 8.51625 36.2348 8.92626C35.9437 9.36022 35.5801 9.6617 35.1415 9.84053C34.5039 10.106 33.3552 10.2389 31.7069 10.2389H30.7833V7.89309H25.7881V25.6822H32.5182C35.8702 25.6822 38.3704 25.122 40.0189 24.0016C41.0387 23.3213 41.8665 22.4219 42.4317 21.38C42.9966 20.3413 43.2887 19.193 43.2843 18.0291C43.2843 16.9885 43.0808 16.033 42.6633 15.1698ZM32.8652 21.182H30.7823V14.7456H32.975C33.9696 14.7456 34.6953 14.7817 35.1622 14.8481C36.1402 14.9581 37.0385 15.4045 37.6802 16.0995C38.0866 16.554 38.29 17.1261 38.29 17.8208C38.2894 20.0585 36.4811 21.1789 32.8652 21.182Z" fill="#28ABB8"/>
</svg>
