<svg width="23" height="22" viewBox="0 0 23 22" fill="none" xmlns="http://www.w3.org/2000/svg">
<path d="M11.5 0.425049C5.14872 0.425049 0 5.15951 0 10.9998C0 16.84 5.14872 21.5745 11.5 21.5745C17.8513 21.5745 23 16.84 23 10.9998C23 5.15951 17.8513 0.425049 11.5 0.425049ZM7.36719 4.6255C7.60413 4.61265 7.81829 4.74288 7.98065 4.97403L9.55292 7.7158C9.71846 8.04069 9.62439 8.38857 9.37745 8.6207L8.6573 9.2829C8.61285 9.33891 8.5836 9.40199 8.58289 9.47136C8.85906 10.4544 9.6968 11.3611 10.4359 11.9847C11.175 12.6082 11.9694 13.4525 13.0007 13.6525C13.1281 13.6852 13.2843 13.6969 13.3755 13.6189L14.2122 12.8354C14.501 12.6341 14.9188 12.5365 15.2271 12.7011H15.2411L18.0782 14.2411C18.4947 14.4812 18.5378 14.9451 18.2397 15.2273L16.2856 17.01C15.997 17.2821 15.6136 17.3736 15.2412 17.374C13.5938 17.3286 12.0373 16.5852 10.7588 15.8211C8.66027 14.4173 6.7353 12.6761 5.5268 10.5725C5.06332 9.69038 4.51885 8.56488 4.57081 7.58031C4.57545 7.20991 4.68443 6.84704 4.9681 6.60829L6.92219 4.81142C7.07442 4.69232 7.22501 4.63322 7.36719 4.6255Z" fill="white"/>
</svg>
