<svg width="32" height="32" viewBox="0 0 32 32" fill="none" xmlns="http://www.w3.org/2000/svg">
<path d="M16 0C7.16344 0 0 7.16344 0 16C0 24.8366 7.16344 32 16 32C24.8366 32 32 24.8366 32 16C32 7.16344 24.8366 0 16 0ZM10.25 6.35547C10.5797 6.33603 10.8776 6.53307 11.1035 6.8828L13.291 11.0312C13.5213 11.5228 13.3905 12.0491 13.0469 12.4004L12.0449 13.4023C11.9831 13.4871 11.9424 13.5825 11.9414 13.6875C12.3257 15.1748 13.4912 16.5467 14.5196 17.4902C15.5479 18.4337 16.6531 19.711 18.0879 20.0137C18.2652 20.0631 18.4825 20.0809 18.6094 19.9629L19.7734 18.7774C20.1753 18.4728 20.7565 18.3252 21.1855 18.5742H21.2051L25.1523 20.9043C25.7317 21.2675 25.7917 21.9695 25.3769 22.3965L22.6582 25.0938C22.2567 25.5055 21.7233 25.6439 21.2051 25.6445C18.9132 25.5759 16.7476 24.451 14.9688 23.2949C12.0491 21.1709 9.37085 18.5364 7.68947 15.3535C7.04461 14.0189 6.28709 12.3159 6.35939 10.8262C6.36584 10.2658 6.51747 9.71675 6.91213 9.35552L9.63088 6.63677C9.84267 6.45656 10.0522 6.36715 10.25 6.35547Z" fill="#28ABB8"/>
</svg>
