<svg width="71" height="71" viewBox="0 0 71 71" fill="none" xmlns="http://www.w3.org/2000/svg">
<g filter="url(#filter0_d_185_45)">
<path d="M35.2201 16.612H27.4141V24.418H19.6081V32.2241H27.4141V40.03H35.2201V32.2241H43.0261V24.418H35.2201V16.612ZM65 55.2049L53.7243 43.9291C56.8154 39.5031 58.642 34.1287 58.642 28.321C58.642 13.232 46.4061 1 31.321 1C16.2359 1 4 13.232 4 28.321C4 43.41 16.232 55.642 31.321 55.642C37.1287 55.642 42.507 53.8154 46.933 50.7243L58.2088 62L65 55.2049ZM31.3171 47.8399C20.5409 47.8399 11.8021 39.1049 11.8021 28.3249C11.8021 17.5448 20.5409 8.80988 31.3171 8.80988C42.0972 8.80988 50.8321 17.5448 50.8321 28.3249C50.836 39.1049 42.1011 47.8399 31.3171 47.8399Z" fill="#28ABB8"/>
</g>
<defs>
<filter id="filter0_d_185_45" x="0" y="0" width="71" height="71" filterUnits="userSpaceOnUse" color-interpolation-filters="sRGB">
<feFlood flood-opacity="0" result="BackgroundImageFix"/>
<feColorMatrix in="SourceAlpha" type="matrix" values="0 0 0 0 0 0 0 0 0 0 0 0 0 0 0 0 0 0 127 0" result="hardAlpha"/>
<feOffset dx="1" dy="4"/>
<feGaussianBlur stdDeviation="2.5"/>
<feComposite in2="hardAlpha" operator="out"/>
<feColorMatrix type="matrix" values="0 0 0 0 0 0 0 0 0 0 0 0 0 0 0 0 0 0 0.14 0"/>
<feBlend mode="normal" in2="BackgroundImageFix" result="effect1_dropShadow_185_45"/>
<feBlend mode="normal" in="SourceGraphic" in2="effect1_dropShadow_185_45" result="shape"/>
</filter>
</defs>
</svg>
