<svg class="fill" width="50" height="50" viewBox="0 0 50 50" fill="none" xmlns="http://www.w3.org/2000/svg">
<path fill-rule="evenodd" clip-rule="evenodd" d="M36 48C37.1046 48 38 47.1046 38 46C38 44.8954 37.1046 44 36 44C34.8954 44 34 44.8954 34 46C34 47.1046 34.8954 48 36 48ZM36 50C38.2091 50 40 48.2091 40 46C40 43.7909 38.2091 42 36 42C33.7909 42 32 43.7909 32 46C32 48.2091 33.7909 50 36 50Z" fill="#606060"></path>
<path fill-rule="evenodd" clip-rule="evenodd" d="M19.2169 32.9762L13.9074 34.1561C6.95004 35.7022 2 41.873 2 49H0C0 40.9356 5.60111 33.9531 13.4735 32.2037L18.7831 31.0238L19.2169 32.9762ZM36.0926 34.1561L30.7831 32.9762L31.2169 31.0238L36.5265 32.2037C44.3989 33.9531 50 40.9356 50 49H48C48 41.873 43.05 35.7022 36.0926 34.1561Z" fill="#606060"></path>
<path fill-rule="evenodd" clip-rule="evenodd" d="M24.1056 44.4472L18.1056 32.4472L19.8944 31.5528L25 41.7639L30.1056 31.5528L31.8944 32.4472L25.8944 44.4472C25.725 44.786 25.3788 45 25 45C24.6212 45 24.275 44.786 24.1056 44.4472Z" fill="#606060"></path>
<path fill-rule="evenodd" clip-rule="evenodd" d="M35 43V33H37V43H35Z" fill="#606060"></path>
<path fill-rule="evenodd" clip-rule="evenodd" d="M13 40V33H15V40H13Z" fill="#606060"></path>
<path fill-rule="evenodd" clip-rule="evenodd" d="M15.9067 42.4594C15.2182 40.7381 12.7818 40.7381 12.0933 42.4594C11.388 44.2227 11.0175 46.1017 11.0006 48H12C12.5523 48 13 48.4477 13 49C13 49.5523 12.5523 50 12 50H10C9.44772 50 9 49.5523 9 49V48.1364C9 45.9373 9.41962 43.7584 10.2363 41.7166C11.5953 38.3191 16.4047 38.3191 17.7637 41.7166C18.5804 43.7584 19 45.9373 19 48.1364V49C19 49.5523 18.5523 50 18 50H16C15.4477 50 15 49.5523 15 49C15 48.4477 15.4477 48 16 48H16.9994C16.9825 46.1017 16.612 44.2227 15.9067 42.4594Z" fill="#606060"></path>
<path fill-rule="evenodd" clip-rule="evenodd" d="M27 19C27 18.4477 27.4477 18 28 18H31C31.5523 18 32 18.4477 32 19C32 19.5523 31.5523 20 31 20H28C27.4477 20 27 19.5523 27 19Z" fill="#606060"></path>
<path fill-rule="evenodd" clip-rule="evenodd" d="M20.1056 25.5528C20.3526 25.0588 20.9532 24.8586 21.4472 25.1056L22.7639 25.7639C24.1716 26.4678 25.8284 26.4678 27.2361 25.7639L28.5528 25.1056C29.0468 24.8586 29.6474 25.0588 29.8944 25.5528C30.1414 26.0468 29.9412 26.6474 29.4472 26.8944L28.1305 27.5528C26.1598 28.5381 23.8402 28.5381 21.8695 27.5528L20.5528 26.8944C20.0588 26.6474 19.8586 26.0468 20.1056 25.5528Z" fill="#606060"></path>
<path fill-rule="evenodd" clip-rule="evenodd" d="M18 19C18 18.4477 18.4477 18 19 18H22C22.5523 18 23 18.4477 23 19C23 19.5523 22.5523 20 22 20H19C18.4477 20 18 19.5523 18 19Z" fill="#606060"></path>
<path d="M0 49C0 48.4477 0.447715 48 1 48C1.55228 48 2 48.4477 2 49C2 49.5523 1.55228 50 1 50C0.447715 50 0 49.5523 0 49Z" fill="#606060"></path>
<path d="M48 49C48 48.4477 48.4477 48 49 48C49.5523 48 50 48.4477 50 49C50 49.5523 49.5523 50 49 50C48.4477 50 48 49.5523 48 49Z" fill="#606060"></path>
<path fill-rule="evenodd" clip-rule="evenodd" d="M35 21.7639L36.1056 21.2111C36.6537 20.9371 37 20.3768 37 19.7639V19.643C37 18.8869 36.531 18.2101 35.8231 17.9447L35.3922 17.7831C31.5914 16.3578 28.7069 13.1933 27.6389 9.2771L27.4307 8.51359C25.0344 12.6013 21.2297 15.6983 16.7067 17.206L14.1861 18.0461C13.4778 18.2823 13 18.9452 13 19.6918V19.7639C13 20.3768 13.3463 20.9371 13.8944 21.2111L15 21.7639V23C15 24.2785 15.9704 26.5561 17.9538 28.6111C19.8836 30.6106 22.3969 32 25 32C27.6031 32 30.1164 30.6106 32.0462 28.6111C34.0296 26.5561 35 24.2785 35 23V21.7639ZM28 3L29.5684 8.75087C30.4674 12.0471 32.8953 14.7107 36.0944 15.9104L36.5253 16.072C38.0139 16.6302 39 18.0532 39 19.643V19.7639C39 21.1343 38.2257 22.3871 37 23C37 27 31.6274 34 25 34C18.3726 34 13 27 13 23C11.7743 22.3871 11 21.1343 11 19.7639V19.6918C11 18.0843 12.0287 16.6571 13.5537 16.1488L16.0742 15.3086C20.5087 13.8304 24.1744 10.6512 26.2648 6.47032L28 3Z" fill="#606060"></path>
<path fill-rule="evenodd" clip-rule="evenodd" d="M22.9487 4.68377C23.1233 5.20771 22.8402 5.77403 22.3162 5.94868L21.8176 6.11488C18.5467 7.20518 15.843 9.55017 14.301 12.634L13.8944 13.4472C13.6474 13.9412 13.0468 14.1414 12.5528 13.8944C12.0588 13.6474 11.8586 13.0468 12.1056 12.5528L12.5122 11.7396C14.2913 8.18131 17.4111 5.47555 21.1852 4.21751L21.6838 4.05132C22.2077 3.87667 22.774 4.15983 22.9487 4.68377Z" fill="#606060"></path>
<path fill-rule="evenodd" clip-rule="evenodd" d="M34 7C34 9.00696 35.2219 10.8117 37.0853 11.5571L38.3714 12.0715C38.8842 12.2766 39.1336 12.8586 38.9285 13.3714C38.7234 13.8842 38.1414 14.1336 37.6286 13.9285L36.3425 13.414C33.7198 12.3649 32 9.82477 32 7H34Z" fill="#606060"></path>
<path d="M32 7C32 6.44771 32.4477 6 33 6C33.5523 6 34 6.44771 34 7C34 7.55228 33.5523 8 33 8C32.4477 8 32 7.55228 32 7Z" fill="#606060"></path>
<path fill-rule="evenodd" clip-rule="evenodd" d="M17.409 2.91362C13.6011 4.83026 8 9.54766 8 18C8 24.8602 11.8343 30.4201 13.7071 32.2929L12.2929 33.7071C10.1657 31.5799 6 25.5398 6 18C6 8.48069 12.3613 3.20134 16.5528 1.10557L16.59 1.08697L16.6286 1.07152C18.4515 0.342357 23.1598 -0.874533 28.141 0.993918C31.9086 0.891892 39.6294 3.1405 42.9445 12.6715C44.6482 17.5696 43.837 22.2902 42.2474 26.0863C40.6634 29.8688 38.2742 32.8165 36.6644 34.2474L35.3356 32.7526C36.7258 31.5169 38.9366 28.8146 40.4026 25.3137C41.863 21.8265 42.5518 17.6304 41.0555 13.3285C38.0277 4.62349 31.0251 2.84999 28.0499 2.99875L27.8621 3.00814L27.6838 2.94868C23.3111 1.4287 19.4958 2.01007 17.409 2.91362Z" fill="#606060"></path>
</svg>