<svg class="fill" width="50" height="50" viewBox="0 0 50 50" fill="none" xmlns="http://www.w3.org/2000/svg">
<path fill-rule="evenodd" clip-rule="evenodd" d="M25 27C26.1046 27 27 26.1046 27 25C27 23.8954 26.1046 23 25 23C23.8954 23 23 23.8954 23 25C23 26.1046 23.8954 27 25 27ZM25 29C27.2091 29 29 27.2091 29 25C29 22.7909 27.2091 21 25 21C22.7909 21 21 22.7909 21 25C21 27.2091 22.7909 29 25 29Z" fill="#606060"></path>
<path fill-rule="evenodd" clip-rule="evenodd" d="M33.0242 17.4758C31.0173 15.3365 28.1647 14 25 14C18.9249 14 14 18.9249 14 25C14 25.0822 14.0009 25.1642 14.0027 25.2459C14.6329 25.0859 15.3008 25 16 25C16 20.0294 20.0294 16 25 16C27.6125 16 29.965 17.1131 31.6091 18.8909L33.0242 17.4758ZM25 36C28.7188 36 32.0066 34.1546 33.9976 31.3296L32.7999 29.4932C31.2447 32.1871 28.3341 34 25 34C24.6204 34 24.2463 33.9765 23.879 33.9309C23.7956 34.5849 23.627 35.239 23.3658 35.8794C23.899 35.9588 24.4447 36 25 36Z" fill="#606060"></path>
<path fill-rule="evenodd" clip-rule="evenodd" d="M37.9755 12.5245C34.7005 9.11913 30.0977 7 25 7C23.6674 7 22.3687 7.1448 21.1187 7.41953C20.9788 8.1874 20.7203 8.95217 20.3312 9.69191C21.8082 9.242 23.3758 9 25 9C29.5455 9 33.6482 10.8954 36.561 13.939L37.9755 12.5245ZM9.56532 15.7335L10.798 17.6237C9.64929 19.8309 9 22.3396 9 25C9 26.2178 9.13605 27.4038 9.39378 28.5437C8.8092 29.4289 8.39987 30.4271 8.1995 31.4744C7.42474 29.4653 7 27.2822 7 25C7 21.6108 7.93669 18.4404 9.56532 15.7335ZM19.3451 42.0938L20.5236 40.3654C21.9441 40.7785 23.4462 41 25 41C29.7076 41 33.9403 38.967 36.868 35.731L37.3248 36.4313C37.5605 36.7927 37.8839 37.0462 38.2426 37.1917C34.9532 40.7627 30.2379 43 25 43C23.0246 43 21.1234 42.6818 19.3451 42.0938Z" fill="#606060"></path>
<path fill-rule="evenodd" clip-rule="evenodd" d="M25 2C23.5052 2 22.0437 2.1426 20.6283 2.41494C20.3041 1.76925 19.8945 1.16681 19.4102 0.627295C21.2074 0.216807 23.0784 0 25 0C32.0307 0 38.3836 2.90226 42.9259 7.57409L41.5115 8.98845C37.3313 4.67848 31.4784 2 25 2ZM47.9696 23.8071C47.9898 24.2022 48 24.5999 48 25C48 37.7025 37.7025 48 25 48C12.2975 48 2 37.7025 2 25C2 19.7407 3.76525 14.8937 6.73558 11.0191L6.31235 10.3701C6.05462 9.97497 5.8371 9.57027 5.65782 9.15964C2.12199 13.472 0 18.9882 0 25C0 38.8071 11.1929 50 25 50C38.8071 50 50 38.8071 50 25C50 24.512 49.986 24.0272 49.9584 23.5461L47.9696 23.8071Z" fill="#606060"></path>
<path fill-rule="evenodd" clip-rule="evenodd" d="M39 22C39.5523 22 40 22.4477 40 23V27C40 27.5523 39.5523 28 39 28C38.4477 28 38 27.5523 38 27V23C38 22.4477 38.4477 22 39 22Z" fill="#606060"></path>
<path fill-rule="evenodd" clip-rule="evenodd" d="M16 31C16.5523 31 17 31.4477 17 32V36C17 36.5523 16.5523 37 16 37C15.4477 37 15 36.5523 15 36V32C15 31.4477 15.4477 31 16 31Z" fill="#606060"></path>
<path fill-rule="evenodd" clip-rule="evenodd" d="M13 4C13.5523 4 14 4.44772 14 5V9C14 9.55228 13.5523 10 13 10C12.4477 10 12 9.55228 12 9V5C12 4.44772 12.4477 4 13 4Z" fill="#606060"></path>
<path fill-rule="evenodd" clip-rule="evenodd" d="M42 25C42 25.5523 41.5523 26 41 26H37C36.4477 26 36 25.5523 36 25C36 24.4477 36.4477 24 37 24H41C41.5523 24 42 24.4477 42 25Z" fill="#606060"></path>
<path fill-rule="evenodd" clip-rule="evenodd" d="M19 34C19 34.5523 18.5523 35 18 35H14C13.4477 35 13 34.5523 13 34C13 33.4477 13.4477 33 14 33H18C18.5523 33 19 33.4477 19 34Z" fill="#606060"></path>
<path fill-rule="evenodd" clip-rule="evenodd" d="M16 7C16 7.55228 15.5523 8 15 8H11C10.4477 8 10 7.55228 10 7C10 6.44771 10.4477 6 11 6H15C15.5523 6 16 6.44772 16 7Z" fill="#606060"></path>
<path fill-rule="evenodd" clip-rule="evenodd" d="M44.7071 5.29289C45.0976 5.68342 45.0976 6.31658 44.7071 6.70711L28 23.4142L26.5858 22L43.2929 5.29289C43.6834 4.90237 44.3166 4.90237 44.7071 5.29289Z" fill="#606060"></path>
<path fill-rule="evenodd" clip-rule="evenodd" d="M10.6986 37.4618C7.51418 33.1194 10.6151 27 16 27C21.3849 27 24.4858 33.1194 21.3014 37.4618L16.8064 43.5914C16.618 43.8482 16.3185 44 16 44C15.6815 44 15.382 43.8482 15.1936 43.5914L10.6986 37.4618ZM16 29C12.2533 29 10.0958 33.2578 12.3114 36.2791L16 41.309L19.6886 36.2791C21.9042 33.2578 19.7467 29 16 29Z" fill="#606060"></path>
<path fill-rule="evenodd" clip-rule="evenodd" d="M7.6986 10.4618C4.51418 6.11944 7.61513 0 13 0C18.3849 0 21.4858 6.11943 18.3014 10.4618L13.8064 16.5914C13.618 16.8482 13.3185 17 13 17C12.6815 17 12.382 16.8482 12.1936 16.5914L7.6986 10.4618ZM13 2C9.25333 2 7.09576 6.25776 9.31141 9.27909L13 14.309L16.6886 9.27909C18.9042 6.25776 16.7467 2 13 2Z" fill="#606060"></path>
<path fill-rule="evenodd" clip-rule="evenodd" d="M33.6986 28.4618C30.5142 24.1194 33.6151 18 39 18C44.3849 18 47.4858 24.1194 44.3014 28.4618L39.8064 34.5914C39.618 34.8482 39.3185 35 39 35C38.6815 35 38.382 34.8482 38.1936 34.5914L33.6986 28.4618ZM39 20C35.2533 20 33.0958 24.2578 35.3114 27.2791L39 32.309L42.6886 27.2791C44.9042 24.2578 42.7467 20 39 20Z" fill="#606060"></path>
<path d="M47.962 23.6612C47.962 23.1089 48.4098 22.6612 48.962 22.6612C49.5143 22.6612 49.962 23.1089 49.962 23.6612C49.962 24.2134 49.5143 24.6612 48.962 24.6612C48.4098 24.6612 47.962 24.2134 47.962 23.6612Z" fill="#606060"></path>
</svg>