<svg class="fill" width="50" height="50" viewBox="0 0 50 50" fill="none" xmlns="http://www.w3.org/2000/svg">
<path fill-rule="evenodd" clip-rule="evenodd" d="M23 11.9876C25.7614 11.9876 28 9.75131 28 6.99275C28 4.23419 25.7614 1.99793 23 1.99793C20.2386 1.99793 18 4.23419 18 6.99275C18 9.75131 20.2386 11.9876 23 11.9876ZM23 13.9855C26.866 13.9855 30 10.8547 30 6.99275C30 3.13076 26.866 0 23 0C19.134 0 16 3.13076 16 6.99275C16 10.8547 19.134 13.9855 23 13.9855Z" fill="#606060"></path>
<path fill-rule="evenodd" clip-rule="evenodd" d="M35 16.9824C36.6569 16.9824 38 15.6406 38 13.9855C38 12.3304 36.6569 10.9886 35 10.9886C33.3431 10.9886 32 12.3304 32 13.9855C32 15.6406 33.3431 16.9824 35 16.9824ZM35 18.9803C37.7614 18.9803 40 16.7441 40 13.9855C40 11.2269 37.7614 8.99068 35 8.99068C32.2386 8.99068 30 11.2269 30 13.9855C30 16.7441 32.2386 18.9803 35 18.9803Z" fill="#606060"></path>
<path fill-rule="evenodd" clip-rule="evenodd" d="M24 13.9855V21.9772H22V13.9855H24Z" fill="#606060"></path>
<path fill-rule="evenodd" clip-rule="evenodd" d="M13.3017 14.3993C15.0678 12.7338 18.2252 11.9876 23 11.9876L31 11.9876V13.9855L23 13.9855C18.2748 13.9855 15.8332 14.7595 14.6747 15.8521C13.6173 16.8494 13.3971 18.3678 13.972 20.7435C14.4581 22.7524 16.0593 24.2728 17.93 25.3395C19.7708 26.389 21.6862 26.8905 22.5444 26.972H35C35.2566 26.972 35.6638 26.8869 35.9782 26.6608C36.2415 26.4714 36.5 26.147 36.5 25.4736C36.5 24.8002 36.2415 24.4758 35.9782 24.2863C35.6638 24.0603 35.2566 23.9751 35 23.9751L26.9633 23.9751C24.9441 23.9753 20.2797 23.9757 17.1808 19.5532C16.864 19.1012 16.9741 18.4783 17.4265 18.1619C17.879 17.8455 18.5025 17.9555 18.8192 18.4074C21.3013 21.9497 24.9989 21.9772 27 21.9772H35C35.5767 21.9772 36.4194 22.1418 37.1468 22.665C37.9251 23.2248 38.5 24.149 38.5 25.4736C38.5 26.7981 37.9251 27.7224 37.1468 28.2822C36.4194 28.8053 35.5767 28.97 35 28.97H22.4584L22.4169 28.9665C21.2551 28.8698 19.0301 28.2672 16.9386 27.0746C14.8489 25.8831 12.7001 23.9904 12.028 21.213C11.4048 18.6375 11.4346 16.1601 13.3017 14.3993Z" fill="#606060"></path>
<path fill-rule="evenodd" clip-rule="evenodd" d="M21.6273 6.62675C20.0701 7.65748 18.3162 7.99171 17 7.99171V5.99378C18.0171 5.99378 19.3632 5.72864 20.5227 4.96123C21.6505 4.21473 22.6594 2.95803 23.0136 0.834735L24.9864 1.16319C24.5406 3.83492 23.2162 5.57512 21.6273 6.62675Z" fill="#606060"></path>
<path fill-rule="evenodd" clip-rule="evenodd" d="M23.4516 4.96975C22.7291 3.37552 22.9161 1.62654 23.1039 0.782258L25.0562 1.21567C24.9107 1.86984 24.8077 3.11775 25.2736 4.14579C25.4952 4.63499 25.8456 5.07696 26.4052 5.4061C26.9727 5.73988 27.8178 5.99378 29.0801 5.99378V7.99171C27.5523 7.99171 26.3357 7.6837 25.3905 7.12778C24.4374 6.56722 23.824 5.7917 23.4516 4.96975Z" fill="#606060"></path>
<path fill-rule="evenodd" clip-rule="evenodd" d="M15 29.9689V24.9741H17V29.9689C17 30.5206 16.5523 30.9679 16 30.9679C15.4477 30.9679 15 30.5206 15 29.9689Z" fill="#606060"></path>
<path fill-rule="evenodd" clip-rule="evenodd" d="M43.2101 29.2517C42.9035 28.8278 42.3604 28.6468 41.8605 28.8019L41.8303 28.8112C41.6322 28.8727 41.4589 28.9771 41.3159 29.12L32.2071 38.2193C31.3592 39.0664 30.8005 40.1935 30.4551 41.3054C30.1099 42.4165 30 43.4405 30 44.0062V49.001C30 49.5527 29.5523 50 29 50C28.4477 50 28 49.5527 28 49.001V44.0062C28 43.24 28.1401 42.0163 28.5449 40.7132C28.9495 39.411 29.6408 37.9574 30.7929 36.8066L39.9017 27.7072C40.2778 27.3315 40.7341 27.0592 41.2372 26.9032L41.2673 26.8938C42.5873 26.4843 44.0217 26.9624 44.8312 28.0816C45.6723 29.2445 45.6405 30.8234 44.7531 31.9515L40.2863 37.6306C39.9451 38.0645 39.3165 38.1398 38.8822 37.799C38.4479 37.4581 38.3725 36.8301 38.7137 36.3963L43.1805 30.7171C43.5165 30.2899 43.5286 29.692 43.2101 29.2517Z" fill="#606060"></path>
<path fill-rule="evenodd" clip-rule="evenodd" d="M47.3855 20.9782C47.0822 20.9782 46.8242 21.1994 46.7781 21.4989L45.4211 30.3276L43.4443 30.0243L44.8013 21.1957C44.9972 19.9213 46.0948 18.9803 47.3855 18.9803C48.8295 18.9803 50 20.1496 50 21.5921V32.0211C50 32.841 49.7476 33.641 49.2769 34.3126L43.1612 43.0403C42.8265 43.5179 42.3596 43.8877 41.8177 44.1042L38.6286 45.3785C38.2489 45.5302 38 45.8976 38 46.306V48.9492C38 49.5009 37.5523 49.9482 37 49.9482C36.4477 49.9482 36 49.5009 36 48.9492V46.306C36 45.0806 36.7469 43.9786 37.8858 43.5235L41.0749 42.2492C41.2555 42.177 41.4112 42.0538 41.5228 41.8945L47.6385 33.1669C47.8738 32.831 48 32.431 48 32.0211V21.5921C48 21.2531 47.7249 20.9782 47.3855 20.9782Z" fill="#606060"></path>
<path fill-rule="evenodd" clip-rule="evenodd" d="M6.78993 29.2517C7.09647 28.8278 7.63965 28.6468 8.13953 28.8019L8.16966 28.8112C8.36777 28.8727 8.54105 28.9771 8.6841 29.12L17.7929 38.2193C18.6408 39.0664 19.1995 40.1935 19.5449 41.3054C19.8901 42.4165 20 43.4405 20 44.0062V49.001C20 49.5527 20.4477 50 21 50C21.5523 50 22 49.5527 22 49.001V44.0062C22 43.24 21.8599 42.0163 21.4551 40.7132C21.0505 39.411 20.3592 37.9574 19.2071 36.8066L10.0983 27.7072C9.72223 27.3315 9.26586 27.0592 8.76284 26.9032L8.7327 26.8938C7.41267 26.4843 5.97827 26.9624 5.16878 28.0816C4.3277 29.2445 4.35955 30.8234 5.24685 31.9515L9.71368 37.6306C10.0549 38.0645 10.6835 38.1398 11.1178 37.799C11.5521 37.4581 11.6275 36.8301 11.2863 36.3963L6.81949 30.7171C6.48348 30.2899 6.47142 29.692 6.78993 29.2517Z" fill="#606060"></path>
<path fill-rule="evenodd" clip-rule="evenodd" d="M2.61449 20.9782C2.91785 20.9782 3.17582 21.1994 3.22186 21.4989L4.57885 30.3276L6.55569 30.0243L5.19869 21.1957C5.0028 19.9213 3.90522 18.9803 2.61449 18.9803C1.17055 18.9803 0 20.1496 0 21.5921V32.0211C0 32.841 0.252439 33.641 0.723072 34.3126L6.83878 43.0403C7.17349 43.5179 7.6404 43.8877 8.18231 44.1042L11.3714 45.3785C11.751 45.5302 12 45.8976 12 46.306V48.9492C12 49.5009 12.4477 49.9482 13 49.9482C13.5523 49.9482 14 49.5009 14 48.9492V46.306C14 45.0806 13.2531 43.9786 12.1142 43.5235L8.92509 42.2492C8.74445 42.177 8.58882 42.0538 8.47725 41.8945L2.36154 33.1669C2.12622 32.831 2 32.431 2 32.0211V21.5921C2 21.2531 2.27512 20.9782 2.61449 20.9782Z" fill="#606060"></path>
<path fill-rule="evenodd" clip-rule="evenodd" d="M25.1683 20.9782H27.4777L32.5378 12.223C33.3689 10.7851 35.2095 10.2924 36.6489 11.1226C38.0883 11.9528 38.5815 13.7914 37.7505 15.2294L34.4279 20.9782H36.7373L39.4825 16.2283C40.8658 13.8348 40.0449 10.7742 37.6489 9.39232C35.2529 8.01042 32.1891 8.8305 30.8058 11.224L25.1683 20.9782ZM31.5411 29.9689H29.2317L28.9234 30.5024C28.0924 31.9403 26.2518 32.433 24.8124 31.6028C24.1551 31.2237 23.6951 30.6344 23.4684 29.9689H21.4025C21.6732 31.3351 22.5102 32.582 23.8124 33.3331C26.2084 34.715 29.2721 33.8949 30.6555 31.5013L31.5411 29.9689Z" fill="#606060"></path>
</svg>