<svg class="fill-svg--theme-color" width="50" height="50" viewBox="0 0 50 50" xmlns="http://www.w3.org/2000/svg">
<path fill-rule="evenodd" clip-rule="evenodd" d="M36 20C36 18.8954 36.8954 18 38 18H48C49.1046 18 50 18.8954 50 20V39.4576C50 40.6635 49.6367 41.8414 48.9574 42.8377L44.6694 49.1267C44.2969 49.6731 43.6783 50 43.017 50H42.983C42.3217 50 41.7031 49.6731 41.3306 49.1267L37.0426 42.8377C36.3633 41.8414 36 40.6635 36 39.4576V20ZM48 20H38V39.4576C38 40.2615 38.2422 41.0468 38.6951 41.711L42.983 48H43.017L47.3049 41.711C47.7578 41.0468 48 40.2615 48 39.4576V20Z" ></path>
<path fill-rule="evenodd" clip-rule="evenodd" d="M12.8052 8H8C7.44772 8 7 8.44772 7 9V12C7 12.5523 7.44772 13 8 13H29C29.5523 13 30 12.5523 30 12V9C30 8.44771 29.5523 8 29 8H23.1948L22.9493 6.2832C22.6029 3.862 20.5172 2 18 2C15.4828 2 13.3971 3.862 13.0507 6.2832L12.8052 8ZM24.9291 6C24.4439 2.60771 21.5265 0 18 0C14.4735 0 11.5561 2.60771 11.0709 6H8C6.34315 6 5 7.34315 5 9V12C5 13.6569 6.34315 15 8 15H29C30.6569 15 32 13.6569 32 12V9C32 7.34315 30.6569 6 29 6H24.9291Z" ></path>
<path fill-rule="evenodd" clip-rule="evenodd" d="M18 8C18.5523 8 19 7.55228 19 7C19 6.44772 18.5523 6 18 6C17.4477 6 17 6.44772 17 7C17 7.55228 17.4477 8 18 8ZM18 10C19.6569 10 21 8.65685 21 7C21 5.34315 19.6569 4 18 4C16.3431 4 15 5.34315 15 7C15 8.65685 16.3431 10 18 10Z" ></path>
<path fill-rule="evenodd" clip-rule="evenodd" d="M3 9H5V11H3C2.44772 11 2 11.4477 2 12V47C2 47.5523 2.44772 48 3 48H33C33.5523 48 34 47.5523 34 47V45H36V47C36 48.6569 34.6569 50 33 50H3C1.34315 50 0 48.6569 0 47V12C0 10.3431 1.34315 9 3 9ZM36 16V12C36 10.3431 34.6569 9 33 9H32V11H33C33.5523 11 34 11.4477 34 12V16H36Z" ></path>
<path fill-rule="evenodd" clip-rule="evenodd" d="M10 40C10 39.4477 10.4477 39 11 39H25C25.5523 39 26 39.4477 26 40C26 40.5523 25.5523 41 25 41H11C10.4477 41 10 40.5523 10 40Z" ></path>
<path fill-rule="evenodd" clip-rule="evenodd" d="M13 43C13 42.4477 13.4477 42 14 42H22C22.5523 42 23 42.4477 23 43C23 43.5523 22.5523 44 22 44H14C13.4477 44 13 43.5523 13 43Z" ></path>
<path fill-rule="evenodd" clip-rule="evenodd" d="M36 23C36 22.4477 36.4477 22 37 22H48C48.5523 22 49 22.4477 49 23C49 23.5523 48.5523 24 48 24H37C36.4477 24 36 23.5523 36 23Z" ></path>
<path fill-rule="evenodd" clip-rule="evenodd" d="M37 39C37 38.4477 37.4477 38 38 38H48C48.5523 38 49 38.4477 49 39C49 39.5523 48.5523 40 48 40H38C37.4477 40 37 39.5523 37 39Z" ></path>
<path fill-rule="evenodd" clip-rule="evenodd" d="M38 43C38 42.4477 38.4477 42 39 42H47C47.5523 42 48 42.4477 48 43C48 43.5523 47.5523 44 47 44H39C38.4477 44 38 43.5523 38 43Z" ></path>
<path fill-rule="evenodd" clip-rule="evenodd" d="M41 27C41.5523 27 42 27.4477 42 28V36C42 36.5523 41.5523 37 41 37C40.4477 37 40 36.5523 40 36V28C40 27.4477 40.4477 27 41 27Z" ></path>
<path fill-rule="evenodd" clip-rule="evenodd" d="M45 16H41V18H45V16ZM41 14C39.8954 14 39 14.8954 39 16V20H47V16C47 14.8954 46.1046 14 45 14H41Z" ></path>
<path fill-rule="evenodd" clip-rule="evenodd" d="M21.774 25.3668C22.1237 25.7942 22.0607 26.4242 21.6332 26.774L17.9666 29.774C17.6065 30.0685 17.0909 30.0759 16.7225 29.7918L14.3892 27.9918C13.9519 27.6544 13.8709 27.0265 14.2082 26.5892C14.5456 26.1519 15.1735 26.0709 15.6108 26.4082L17.315 27.7229L20.3668 25.226C20.7942 24.8763 21.4242 24.9393 21.774 25.3668Z" ></path>
<path d="M34 45C34 44.4477 34.4477 44 35 44C35.5523 44 36 44.4477 36 45C36 45.5523 35.5523 46 35 46C34.4477 46 34 45.5523 34 45Z" ></path>
<path d="M34 16C34 15.4477 34.4477 15 35 15C35.5523 15 36 15.4477 36 16C36 16.5523 35.5523 17 35 17C34.4477 17 34 16.5523 34 16Z" ></path>
<path fill-rule="evenodd" clip-rule="evenodd" d="M6.93755 26.6337C6.36198 22.6047 9.48831 19 13.5582 19H14.0764C14.4093 19 14.7417 19.0254 15.0708 19.076L15.1395 19.0866C16.4813 19.293 17.4004 19.9431 17.9992 20.5147C18.5984 19.9422 19.5173 19.2933 20.8606 19.0866L20.9293 19.076C21.2583 19.0254 21.5907 19 21.9237 19H22.4418C26.5117 19 29.6381 22.6047 29.0625 26.6337C29.0057 27.0316 28.912 27.4265 28.7853 27.8065C28.1412 29.7388 26.5965 30.9332 25.1573 31.8972L25.1354 31.9119L18.512 35.859C18.1966 36.047 17.8035 36.047 17.4881 35.859L10.8778 31.9197C9.25518 30.9282 7.85325 29.7219 7.21477 27.8065C7.08811 27.4265 6.99439 27.0316 6.93755 26.6337ZM13.5582 21C10.7054 21 8.514 23.5267 8.91745 26.3509C8.95712 26.6286 9.02298 26.9066 9.11213 27.174C9.53105 28.4308 10.4579 29.3185 11.916 30.2102L18 33.8359L24.066 30.2209C25.4677 29.2801 26.4763 28.4089 26.8879 27.174C26.9771 26.9066 27.0429 26.6286 27.0826 26.3509C27.4861 23.5267 25.2946 21 22.4418 21H21.9237C21.6926 21 21.4618 21.0176 21.2334 21.0528L21.1647 21.0634C19.9509 21.2501 19.3343 21.9773 18.8711 22.5235C18.8321 22.5695 18.7943 22.6141 18.7572 22.6571L18.0029 23.5315L17.2453 22.6599C17.2052 22.6139 17.1643 22.5659 17.1222 22.5165C16.6567 21.9703 16.0419 21.249 14.8354 21.0634L14.7667 21.0528C14.5383 21.0176 14.3075 21 14.0764 21H13.5582Z" ></path>
</svg>