<svg width="181" height="38" viewBox="0 0 181 38" fill="none" xmlns="http://www.w3.org/2000/svg">
<path class="fill-theme-svg" fill-rule="evenodd" clip-rule="evenodd" d="M21.9666 12.5178L21.9611 12.5196L18.5822 9.418L18.5842 9.41617L16.9076 7.89912C12.8274 4.20726 6.50846 4.53027 2.79539 8.59116C-0.94092 12.6775 -0.668537 19.0471 3.43123 22.7686L11.6067 30.1898C15.4776 33.7036 21.2272 33.9741 25.3875 31.0015C21.7555 31.348 17.7082 30.3326 15.2908 28.1269L14.4517 27.3659C14.399 27.3209 14.3468 27.2749 14.2952 27.228L6.11973 19.8068C5.07901 18.8621 4.44851 17.6262 4.24099 16.3281L4.8589 16.1807C6.46278 15.7983 8.15211 16.2311 9.37444 17.3378L17.4261 24.6274C18.1107 25.2471 18.8558 25.7668 19.6422 26.1853C19.7256 26.2277 19.8097 26.2701 19.8947 26.3126C24.8204 28.7735 30.1522 26.9755 33.6154 23.6219L33.61 23.639L34.5567 22.7797C38.6612 19.0538 38.9285 12.6748 35.1812 8.58992C32.6148 5.7924 28.8108 4.77597 25.3604 5.62944L26.835 9.40983C28.7634 9.10659 30.8115 9.74377 32.2336 11.2939C32.9748 12.1019 33.454 13.0574 33.677 14.0551L31.9138 15.0734C29.5613 16.4321 26.7036 16.2948 24.6571 14.7037C23.7656 14.0106 22.8417 13.2664 21.9666 12.5178ZM16.9079 13.2938L14.2238 10.8652C11.7887 8.66176 7.98707 8.84088 5.74741 11.2903C5.5164 11.543 5.31095 11.81 5.13089 12.0881C7.64027 11.8392 10.1621 12.6551 12.0591 14.3725L20.1107 21.6621C22.538 23.8596 26.1643 24.081 28.8409 22.195L30.6363 20.9298L30.6391 20.9337L31.8682 19.8179C32.0621 19.6419 32.2418 19.4558 32.4071 19.261C29.0488 20.5695 25.1732 20.1716 22.202 17.8616C20.4434 16.4944 18.4562 14.8535 16.9029 13.2988L16.9079 13.2938Z" fill="#35CCD1"></path>
<path class="fill-theme-svg" d="M26.3946 5.42972L27.1837 9.36379L26.5995 9.43783C26.4122 9.46158 26.2282 9.50662 26.051 9.57207C25.4769 9.7842 24.8326 9.66234 24.3755 9.25518L22.0196 7.15627C23.261 6.28239 24.6856 5.70338 26.1846 5.46335L26.3946 5.42972Z" fill="#35CCD1"></path>
<path class="fill-dark-light" d="M70.8451 20C71.3304 21.7547 72.5813 23.116 74.728 23.116C76.1093 23.116 77.1547 22.6493 77.864 21.716L80.776 23.396C79.3947 25.3933 77.36 26.392 74.672 26.392C72.3573 26.392 70.5 25.692 69.1 24.292C67.7 22.892 67 21.128 67 19C67 16.8907 67.6907 15.136 69.072 13.736C70.4533 12.3173 72.2267 11.608 74.392 11.608C76.4453 11.608 78.1347 12.3173 79.46 13.736C80.804 15.1547 81.476 16.9093 81.476 19C81.476 19.4667 81.4293 19.4773 81.336 20H70.8451ZM70.8451 17H77.7331C77.5061 16.383 77.2293 16.0227 76.576 15.556C75.9413 15.0893 75.2133 15 74.392 15C73.4213 15 72.6187 15.108 71.984 15.612C71.3493 16.0973 71.1211 16.5 70.8451 17Z" fill="#333333"></path>
<path class="fill-dark-light" d="M97 23H99V30H95.5V26H86.528V30H83V23H84.708C85.5107 21.8053 85.912 19.7653 85.912 17.656V12H97V23ZM88.572 23H93.472V15.248H89.44V17.656C89.44 19.6347 89.1507 21.6747 88.572 23Z" fill="#333333"></path>
<path class="fill-dark-light" d="M113.612 23H116.014V30.0002H112V26H101V12H104.612V23H110V12H113.612V23Z" fill="#333333"></path>
<path class="fill-dark-light" d="M143 12H146.612V26H143V21H137.612V26H134V12H137.612V17.612H143V12Z" fill="#333333"></path>
<path class="fill-dark-light" d="M160.404 12V15.472H156.036V26H152.424V15.472H148V12H160.404Z" fill="#333333"></path>
<path class="fill-dark-light" d="M170.148 11.608C172.033 11.608 173.639 12.3267 174.964 13.764C176.308 15.1827 176.98 16.928 176.98 19C176.98 21.072 176.308 22.8267 174.964 24.264C173.639 25.6827 172.033 26.392 170.148 26.392C168.188 26.392 166.676 25.7107 165.612 24.348V32H162V12H165.612V13.652C166.676 12.2893 168.188 11.608 170.148 11.608ZM166.704 21.856C167.432 22.584 168.356 22.948 169.476 22.948C170.596 22.948 171.52 22.584 172.248 21.856C172.995 21.1093 173.368 20.1573 173.368 19C173.368 17.8427 172.995 16.9 172.248 16.172C171.52 15.4253 170.596 15.052 169.476 15.052C168.356 15.052 167.432 15.4253 166.704 16.172C165.976 16.9 165.612 17.8427 165.612 19C165.612 20.1573 165.976 21.1093 166.704 21.856Z" fill="#333333"></path>
<path class="fill-dark-light" d="M120.854 20C121.339 21.7547 122.581 23.116 124.728 23.116C126.109 23.116 127.155 22.6493 127.864 21.716L130.776 23.396C129.395 25.3933 127.36 26.392 124.672 26.392C122.357 26.392 120.5 25.692 119.1 24.292C117.7 22.892 117 21.128 117 19C117 16.8907 117.691 15.136 119.072 13.736C120.453 12.3173 122.227 11.608 124.392 11.608C126.445 11.608 128.135 12.3173 129.46 13.736C130.804 15.1547 131.476 16.9093 131.476 19C131.476 19.4667 131.429 19.4773 131.336 20H120.854ZM120.854 17H127.733C127.506 16.383 127.229 16.0227 126.576 15.556C125.941 15.0893 125.213 15 124.392 15C123.421 15 122.619 15.108 121.984 15.612C121.349 16.0973 121.13 16.5 120.854 17Z" fill="#333333"></path>
<path class="fill-dark-light" d="M64.56 12V26H61.004V18.0184L57.2579 23.424H56.8099L53.472 18.0184V26H50V12H53.556L57 17.9922L61.004 12H64.56Z" fill="#333333"></path>
</svg>