<?xml version="1.0" encoding="utf-8"?>
<!-- Generator: Adobe Illustrator 17.1.0, SVG Export Plug-In . SVG Version: 6.00 Build 0)  -->
<!DOCTYPE svg PUBLIC "-//W3C//DTD SVG 1.1//EN" "http://www.w3.org/Graphics/SVG/1.1/DTD/svg11.dtd">
<svg version="1.1" id="Layer_1" xmlns="http://www.w3.org/2000/svg" xmlns:xlink="http://www.w3.org/1999/xlink" x="0px" y="0px"
	 width="400px" height="150px" viewBox="400 150 400 150" enable-background="new 400 150 400 150" xml:space="preserve">
<g>
	<g>
		<path fill="#A3D6E3" d="M738.1,222.7c0-23.7,0-47.2,0-70.8c0.4,0,0.7-0.1,1-0.1c8.3,0.1,16.7-0.2,25,0.3
			c10.4,0.6,19.9,3.9,26.9,12c16.2,18.6,9,47.7-14.9,56c-5.6,1.9-11.5,2.7-17.4,2.8c-6.6,0.1-13.1,0-19.7,0
			C738.7,222.8,738.5,222.8,738.1,222.7z M752.3,220.2c1.9,0,3.6,0,5.3,0c11.2,0,19.7-5.6,23.9-16c3.9-9.6,4.1-19.6,1.6-29.6
			c-3.3-13-11-19.4-24.3-20.4c-2.1-0.2-4.3,0-6.5,0C752.3,176.4,752.3,198.2,752.3,220.2z"/>
		<path fill="#A3D6E3" d="M518.4,193.2c0,10,0,19.7,0,29.5c-4.8,0-9.4,0-14.1,0c0-23.6,0-47.1,0-70.7c0.3-0.1,0.5-0.2,0.7-0.2
			c7.8,0.1,15.6,0,23.4,0.2c5,0.2,9.9,1.3,14.5,3.6c6.8,3.5,10.3,9,10.3,16.7c0,4.7-0.9,9.1-4.2,12.7c-2.8,3.1-6.3,4.9-10.3,6.1
			c-5.7,1.8-11.6,2-17.5,2.1C520.4,193.2,519.5,193.2,518.4,193.2z M518.4,190.5c2.3,0,4.5,0.1,6.7,0c6.3-0.5,10.5-4,11.9-10.2
			c1.4-5.7,1.3-11.4-0.1-17.1c-0.6-2.6-1.9-5-4.2-6.5c-4.4-3-9.4-2.4-14.4-2.4C518.4,166.5,518.4,178.4,518.4,190.5z"/>
		<path fill="#A3D6E3" d="M720.4,208.9c0-18.9,0-37.9,0-56.9c0.9,0,1.6,0,2.5,0c0,23.6,0,47.2,0,70.9c-3.1,0-6.2,0.1-9.2-0.1
			c-0.5,0-1.1-0.7-1.4-1.2c-8.5-11.7-17-23.5-25.4-35.3c-5.4-7.5-10.8-15-16.2-22.4c-0.3-0.4-0.6-0.8-1.2-1.6c0,20.4,0,40.3,0,60.4
			c-0.9,0-1.7,0-2.5,0c0-23.5,0-47.1,0-70.9c1.1,0,2.2,0,3.3,0c2.4,0,4.8,0.1,7.1,0c1.1,0,1.8,0.4,2.4,1.3
			c13.1,18.2,26.1,36.4,39.2,54.6c0.3,0.5,0.7,0.9,1,1.3C720.2,208.9,720.3,208.9,720.4,208.9z"/>
		<path fill="#A3D6E3" d="M597.7,215c2.1-5.2,4.2-10.2,6.3-15.2c4.9-11.7,9.7-23.4,14.6-35.1c0.4-1,0.4-1.8,0-2.8
			c-1-2.3-1.9-4.7-3-7.2c4.2-1.5,8.4-2.9,12.8-4.4c10.1,24.1,20.1,48.2,30.2,72.4c-0.6,0-1,0.1-1.5,0.1c-3.8,0-7.7-0.1-11.5,0
			c-1.4,0-2.1-0.3-2.6-1.7c-2.4-6.1-5-12.1-7.4-18.2c-0.4-1-1-1.5-2-1.9c-4-1.4-8-0.9-12.1-0.4c-3.3,0.4-6.6,0.7-9.9,0.9
			c-1.6,0.1-3.1-0.5-5-0.8c-0.1,0.2-0.3,0.6-0.5,1.1c-1.6,3.8-3.2,7.6-4.8,11.5C600.3,215.3,600.3,215.3,597.7,215z M606.9,199.4
			c3.2,0.8,6.2,0.2,9.2-0.6c3.7-1,7.3-2.2,11-3.1c1.6-0.4,3.3-0.4,5.2-0.5c-3.9-9.4-7.8-18.8-11.8-28.5
			C615.9,177.8,611.4,188.6,606.9,199.4z"/>
		<path fill="#A3D6E3" d="M451.5,154.7c4.3-1.5,8.4-2.9,12.8-4.4c10.1,24.1,20.1,48.1,30.2,72.4c-0.7,0-1.1,0.1-1.6,0.1
			c-3.8,0-7.7-0.1-11.5,0c-1.4,0-2-0.5-2.5-1.7c-2.4-6.1-5-12.1-7.5-18.2c-0.4-1-1-1.6-2-1.9c-4-1.4-8-0.9-12.1-0.4
			c-3.4,0.4-6.8,0.7-10.2,0.8c-1.5,0-3-0.5-4.8-0.8c-0.6,1.4-1.2,3-1.9,4.5c-1.1,2.7-2.2,5.3-3.3,8c-0.9,2.1-0.9,2.1-3.5,1.8
			c0.2-0.5,0.4-1.1,0.6-1.6c6.7-16.2,13.4-32.4,20.2-48.5c0.4-1,0.5-1.9,0-2.9C453.5,159.6,452.5,157.2,451.5,154.7z M456.5,166.7
			c-4.6,11.1-9.1,21.9-13.6,32.7c3.3,0.8,6.3,0.1,9.3-0.7c5.3-1.4,10.3-3.8,16.2-3.4C464.4,185.8,460.5,176.4,456.5,166.7z"/>
		<path fill="#A3D6E3" d="M582.7,274.5c1.2,0.3,2.2,0.6,3.1,0.9c3.5,1.1,5.8,3.4,6.6,7c0.6,2.7,1.1,5.5,1.5,8.2
			c0.8,4.8,1.7,5.9,6.1,6.9c0.4,1.1,0.1,1.6-1.2,1.9c-7.8,1.5-13.1-1.8-15.2-9.7c-0.7-2.5-1.3-5.1-2.3-7.6
			c-2.1-5.3-5.6-7.1-11.5-6.3c0,7.1,0,14.2,0,21.4c-3.7,0-7.1,0-10.7,0c0-17.7,0-35.3,0-52.8c0.1-0.1,0.2-0.2,0.3-0.2
			c7.7,0,15.3-0.6,22.9,0.7c3,0.5,5.9,1.5,8.4,3.4c5.1,3.8,6.6,11.4,3.5,17.5c-2.2,4.3-5.7,7-10.4,8.3
			C583.6,274.1,583.3,274.3,582.7,274.5z M569.9,273.6c1,0,2,0,2.9,0c5.5,0,9.3-2.9,10.8-8.2c1-3.4,1-6.8,0.4-10.3
			c-1.2-7.1-6.1-10-14.1-8.9C569.9,255.2,569.9,264.3,569.9,273.6z"/>
		<path fill="#A3D6E3" d="M609.4,222.7c-14.7,0-29.4,0-44.3,0c0-23.6,0-47.1,0-70.8c4.7,0,9.3,0,14.1,0c0,22.7,0,45.4,0,68.3
			c10.1,0,20.1,0,30.2,0C609.4,221.1,609.4,221.9,609.4,222.7z"/>
		<path fill="#A3D6E3" d="M445.5,220.2c0,0.9,0,1.6,0,2.4c-14.8,0-29.5,0-44.3,0c0-23.6,0-47.2,0-70.8c4.7,0,9.3,0,14.1,0
			c0,0.7,0,1.4,0,2c0,21.5,0,43,0,64.4c0,1.6,0.4,2,2,2c8.8-0.1,17.6,0,26.4,0C444.2,220.2,444.8,220.2,445.5,220.2z"/>
		<path fill="#A3D6E3" d="M736.7,248.6c-3.5,1.2-6.6,2.3-9.7,3.3c-0.2-0.2-0.3-0.2-0.3-0.3c-2-6.4-9.7-7.7-14.6-4.4
			c-2.7,1.8-4.8,4.3-6.1,7.3c-4.1,9.5-4.6,19.1-0.1,28.5c3.6,7.6,10.5,11.2,18.9,10.4c1.6-0.2,3.7,0,4.6-0.9
			c0.8-0.8,0.3-2.9,0.3-4.4c0-5.3,0-10.7,0-16.1c-1.8,0-3.5,0-5.2,0c0-0.7,0-1.2,0-1.9c5.3,0,10.5,0,16,0c0,0.6,0,1.1,0,1.6
			c0,5.8,0,11.6,0,17.4c0,0.9-0.5,1.9-1.1,2.5c-3.9,3.8-8.8,5.4-14,6.2c-6.6,1-13.1,0.5-19.3-2.3c-10-4.5-16.1-14.1-15.7-25.2
			c0.1-3.5,0.7-7,1.7-10.4c2.2-7.1,7-12.1,13.9-14.7c8.6-3.3,17.3-3.1,25.9,0.2c1.1,0.4,2,1,3,1.6
			C735.5,247.5,735.9,248,736.7,248.6z"/>
		<path fill="#A3D6E3" d="M521.9,275.1c0,7.5,0,14.8,0,22.1c-3.6,0-7,0-10.6,0c0-17.7,0-35.3,0-52.9c0.1-0.1,0.2-0.2,0.3-0.2
			c7.5,0,15-0.7,22.4,0.8c4.9,0.9,9.4,2.8,12.1,7.3c5,8.2,0.9,18.4-8.6,21.3c-4.6,1.4-9.3,1.7-14.1,1.6
			C523,275.1,522.6,275.1,521.9,275.1z M522,273.1c1.7,0,3.3,0.1,4.8,0c5.1-0.5,8.4-3.3,9.1-8.3c0.5-3.3,0.5-6.8,0.2-10.2
			c-0.2-3.3-1.6-6.2-5-7.6c-2.9-1.2-6-1.1-9.2-1C522,255.1,522,264.1,522,273.1z"/>
		<path fill="#A3D6E3" d="M496.6,250.9c-2.3,0.8-4.3,1.5-6.4,2.2c-0.3-0.5-0.6-0.9-0.9-1.4c-3.6-5.5-10.1-8-16.1-6.2
			c-6.2,1.9-8.3,9.6-3.4,13.8c2.6,2.3,6,3.8,9.1,5.5c4.3,2.3,8.8,4.1,13,6.5c3.6,2,6.3,4.9,7.1,9.2c1,5.6-1.3,10.6-6.4,13.7
			c-5.9,3.5-12.4,4.6-19.1,4c-5.8-0.5-11.1-2.5-15.3-6.7c-0.3-0.3-0.6-0.7-0.9-1c-0.1-0.2-0.2-0.3-0.4-0.7c2.2-0.7,4.3-1.5,6.5-2.2
			c0.3,0.6,0.6,1,0.8,1.5c3.7,6.7,12.5,9.5,19.3,6.2c5.5-2.7,6.8-9.4,2.2-13.5c-2.4-2.2-5.4-3.7-8.3-5.3c-3-1.7-6.2-2.9-9.1-4.6
			c-2.3-1.3-4.6-2.9-6.5-4.7c-6.1-6.1-5.1-15.4,2-20.3c4.7-3.2,9.9-3.9,15.4-3.6c6,0.4,11.5,1.9,16,6.2
			C495.7,249.7,496.1,250.2,496.6,250.9z"/>
		<path fill="#A3D6E3" d="M639,252.4c0,14.9,0,29.8,0,44.8c-0.7,0-1.2,0-1.8,0c0-17.7,0-35.3,0-53.1c2.9,0,5.7-0.1,8.5,0.1
			c0.4,0,1,0.7,1.3,1.2c9.6,13.3,19.2,26.6,28.7,39.9c0.4,0.5,0.8,1.1,1.5,2c0-14.6,0-28.8,0-43.1c0.7,0,1.2-0.1,1.8-0.1
			c0,17.7,0,35.3,0,53.2c-2.3,0-4.6,0.1-6.9-0.1c-0.5,0-0.9-0.7-1.3-1.2c-10.2-14.1-20.3-28.2-30.5-42.3c-0.3-0.5-0.7-1-1.1-1.4
			C639.2,252.3,639.1,252.4,639,252.4z"/>
		<path fill="#A3D6E3" d="M622.6,244.1c0,17.8,0,35.4,0,53.2c-3.4,0-6.7,0-9.9,0c-0.2,0-0.5-0.5-0.7-0.8c-0.1-0.3,0-0.6,0-0.9
			c0-16.6,0-33.1,0-49.7c0-1.5,0.4-1.8,1.8-1.8C616.7,244.1,619.6,244.1,622.6,244.1z"/>
	</g>
</g>
</svg>
