<?xml version="1.0" encoding="utf-8"?>
<!-- Generator: Adobe Illustrator 17.1.0, SVG Export Plug-In . SVG Version: 6.00 Build 0)  -->
<!DOCTYPE svg PUBLIC "-//W3C//DTD SVG 1.1//EN" "http://www.w3.org/Graphics/SVG/1.1/DTD/svg11.dtd">
<svg version="1.1" id="Layer_1" xmlns="http://www.w3.org/2000/svg" xmlns:xlink="http://www.w3.org/1999/xlink" x="0px" y="0px"
	 width="1200px" height="100px" viewBox="0 0 1200 100" enable-background="new 0 0 1200 100" xml:space="preserve">
<path fill="#24334F" d="M0,22c49.7,2,50.1-10,100-10c50,0,50,10,100,10c50,0,50-10,100-10c50,0,50,10,100,10c50,0,50-10,100-10
	c50,0,50,10,100,10c50,0,50-10,100-10c50,0,50,10,100,10c50,0,50-10,100-10c50,0,50,10,100,10c50,0,50-10,100-10
	c49.9,0,50.3,12,100,10V0H0V22z"/>
</svg>
