<svg width="196" height="196" viewBox="0 0 196 196" fill="none" xmlns="http://www.w3.org/2000/svg">
<path d="M21.9999 98C21.9999 77.8435 30.007 58.5126 44.2598 44.2599C58.5125 30.0071 77.8434 22 97.9999 22C118.156 22 137.487 30.0071 151.74 44.2599C165.993 58.5126 174 77.8435 174 98L167.31 98C167.31 79.6178 160.008 61.9886 147.009 48.9904C134.011 35.9923 116.382 28.69 97.9999 28.69C79.6177 28.69 61.9884 35.9923 48.9903 48.9904C35.9921 61.9886 28.6899 79.6178 28.6899 98L21.9999 98Z" fill="#28ABB8"/>
<circle r="75.7665" transform="matrix(0.921016 -0.389525 -0.389525 -0.921016 98.0154 97.9843)" stroke="#28ABB8" stroke-width="2"/>
<circle r="69.7469" transform="matrix(0.921016 -0.389525 -0.389525 -0.921016 98.0153 97.9845)" stroke="#28ABB8" stroke-width="2"/>
<path d="M44.1661 75.3422C56.7769 45.5244 91.1721 31.5754 120.99 44.1862C150.808 56.797 164.757 91.1922 152.146 121.01C139.535 150.828 105.14 164.777 75.3221 152.166C45.5043 139.555 31.5552 105.16 44.1661 75.3422Z" fill="#00263A"/>
</svg>
