<svg width="196" height="196" viewBox="0 0 196 196" fill="none" xmlns="http://www.w3.org/2000/svg">
<path d="M22 98C22 88.0195 23.9658 78.1368 27.7851 68.916C31.6045 59.6953 37.2026 51.3171 44.2599 44.2599C51.3171 37.2026 59.6953 31.6045 68.9161 27.7851C78.1368 23.9658 88.0195 22 98 22L98 28.69C88.8981 28.69 79.8853 30.4827 71.4762 33.9659C63.0671 37.449 55.4264 42.5544 48.9904 48.9904C42.5544 55.4264 37.449 63.0671 33.9659 71.4762C30.4827 79.8853 28.69 88.8981 28.69 98L22 98Z" fill="#28ABB8"/>
<circle r="75.7665" transform="matrix(0.921016 -0.389525 -0.389525 -0.921016 98.0156 97.9843)" stroke="#28ABB8" stroke-width="2"/>
<circle r="69.7469" transform="matrix(0.921016 -0.389525 -0.389525 -0.921016 98.0155 97.9845)" stroke="#28ABB8" stroke-width="2"/>
<path d="M44.1662 75.8012C56.777 45.9834 91.1722 32.0344 120.99 44.6452C150.808 57.256 164.757 91.6512 152.146 121.469C139.535 151.287 105.14 165.236 75.3222 152.625C45.5044 140.014 31.5554 105.619 44.1662 75.8012Z" fill="#00263A"/>
</svg>
