<svg width="196" height="196" viewBox="0 0 196 196" fill="none" xmlns="http://www.w3.org/2000/svg">
<path d="M22 98C22 82.9686 26.4573 68.2748 34.8083 55.7767C43.1593 43.2785 55.0289 33.5374 68.9161 27.7852C82.8032 22.0329 98.0843 20.5278 112.827 23.4603C127.569 26.3928 141.111 33.6311 151.74 44.2599C162.369 54.8887 169.607 68.4306 172.54 83.1731C175.472 97.9157 173.967 113.197 168.215 127.084C162.463 140.971 152.721 152.841 140.223 161.192C127.725 169.543 113.031 174 98 174V167.31C111.708 167.31 125.109 163.245 136.507 155.629C147.905 148.013 156.788 137.189 162.034 124.524C167.28 111.859 168.653 97.9231 165.978 84.4783C163.304 71.0335 156.703 58.6836 147.01 48.9904C137.316 39.2972 124.967 32.6961 111.522 30.0218C98.0769 27.3474 84.141 28.72 71.4762 33.9659C58.8114 39.2118 47.9867 48.0954 40.3708 59.4934C32.7549 70.8914 28.69 84.2918 28.69 98H22Z" fill="#28ABB8"/>
<circle r="75.7665" transform="matrix(0.921016 -0.389525 -0.389525 -0.921016 98.0156 97.9843)" stroke="#28ABB8" stroke-width="2"/>
<circle r="69.7469" transform="matrix(0.921016 -0.389525 -0.389525 -0.921016 98.0155 97.9845)" stroke="#28ABB8" stroke-width="2"/>
<path d="M44.1662 75.3422C56.777 45.5244 91.1722 31.5754 120.99 44.1862C150.808 56.797 164.757 91.1922 152.146 121.01C139.535 150.828 105.14 164.777 75.3222 152.166C45.5044 139.555 31.5554 105.16 44.1662 75.3422Z" fill="#00263A"/>
</svg>
