<svg width="196" height="196" viewBox="0 0 196 196" fill="none" xmlns="http://www.w3.org/2000/svg">
<path d="M98.0002 22C56.0266 22 22.0002 56.0263 22.0002 98C22.0002 139.974 56.0266 174 98.0002 174C139.974 174 174 139.974 174 98C174 56.0264 139.974 22 98.0002 22ZM98.0002 167.31C59.7214 167.31 28.6902 136.279 28.6902 98C28.6902 59.7211 59.7214 28.69 98.0002 28.69C136.279 28.69 167.31 59.7211 167.31 98C167.31 136.279 136.279 167.31 98.0002 167.31Z" fill="#28ABB8"/>
<circle r="75.7665" transform="matrix(0.921016 -0.389525 -0.389525 -0.921016 98.0158 97.9843)" stroke="#28ABB8" stroke-width="2"/>
<circle r="69.7469" transform="matrix(0.921016 -0.389525 -0.389525 -0.921016 98.0157 97.9845)" stroke="#28ABB8" stroke-width="2"/>
<path d="M44.1664 75.3422C56.7772 45.5244 91.1724 31.5754 120.99 44.1862C150.808 56.797 164.757 91.1922 152.146 121.01C139.535 150.828 105.14 164.777 75.3224 152.166C45.5046 139.555 31.5556 105.16 44.1664 75.3422Z" fill="#00263A"/>
</svg>
