<svg width="155" height="154" viewBox="0 0 155 154" fill="none" xmlns="http://www.w3.org/2000/svg">
<path fill-rule="evenodd" clip-rule="evenodd" d="M104.26 12.5455C68.6625 -2.5096 27.6006 14.1431 12.5455 49.7403C-2.50956 85.3375 14.1431 126.399 49.7403 141.454C85.3375 156.51 126.399 139.857 141.454 104.26C156.51 68.6624 139.857 27.6006 104.26 12.5455ZM86.2271 39.9813H56.1611C54.9343 39.9813 53.7578 40.4145 52.8903 41.1855C52.0229 41.9566 51.5356 43.0024 51.5356 44.0929V105.767C51.5356 106.857 52.0229 107.903 52.8903 108.674C53.7578 109.445 54.9343 109.878 56.1611 109.878H102.416C103.643 109.878 104.82 109.445 105.687 108.674C106.555 107.903 107.042 106.857 107.042 105.767V58.4834L86.2271 39.9813ZM86.2271 46.1487L100.104 58.4834H88.5399C87.9265 58.4834 87.3382 58.2668 86.9045 57.8813C86.4708 57.4957 86.2271 56.9728 86.2271 56.4276V46.1487ZM95.4777 74.9297C95.4777 74.3846 95.2341 73.8618 94.8005 73.4763C94.3668 73.0909 93.7787 72.8744 93.1654 72.8744C92.5521 72.8744 91.964 73.0909 91.5303 73.4763L74.6633 88.4691L67.0473 81.6994C66.6111 81.3249 66.0269 81.1177 65.4205 81.1224C64.8141 81.1271 64.234 81.3433 63.8052 81.7245C63.3764 82.1056 63.1332 82.6212 63.1279 83.1603C63.1226 83.6993 63.3558 84.2186 63.777 84.6063L74.6633 94.2829L94.8005 76.3832C95.2341 75.9976 95.4777 75.4748 95.4777 74.9297Z" fill="#28ABB8"/>
<circle cx="77.2623" cy="77.0155" r="75.7665" stroke="#28ABB8" stroke-width="2"/>
</svg>
