<svg width="154" height="154" viewBox="0 0 154 154" fill="none" xmlns="http://www.w3.org/2000/svg">
<path fill-rule="evenodd" clip-rule="evenodd" d="M12.5455 49.7403C27.6006 14.1431 68.6624 -2.50959 104.26 12.5455C139.857 27.6006 156.51 68.6624 141.454 104.26C126.399 139.857 85.3375 156.509 49.7403 141.454C14.1431 126.399 -2.50956 85.3375 12.5455 49.7403ZM113.579 53.3745C111.861 53.3745 110.213 53.9812 108.998 55.0612C107.783 56.1412 107.1 57.606 107.1 59.1333V62.9725H120.058V59.1333C120.058 57.606 119.375 56.1412 118.16 55.0612C116.945 53.9812 115.297 53.3745 113.579 53.3745ZM107.1 66.8117V98.4853L113.579 107.123L120.058 98.4853V66.8117H107.1ZM42.3131 103.284V45.6958C42.3131 44.1685 42.9957 42.7037 44.2107 41.6237C45.4257 40.5437 47.0736 39.937 48.7918 39.937H96.3022C98.0205 39.937 99.6684 40.5437 100.883 41.6237C102.098 42.7037 102.781 44.1685 102.781 45.6958V103.284C102.781 104.811 102.098 106.276 100.883 107.356C99.6684 108.436 98.0205 109.043 96.3022 109.043H48.7918C47.0736 109.043 45.4257 108.436 44.2107 107.356C42.9957 106.276 42.3131 104.811 42.3131 103.284ZM73.1796 55.8561C72.7746 56.2161 72.547 56.7043 72.547 57.2135C72.547 57.7226 72.7746 58.2108 73.1796 58.5708C73.5845 58.9308 74.1338 59.1331 74.7066 59.1331H91.9831C92.5559 59.1331 93.1052 58.9308 93.5102 58.5708C93.9152 58.2108 94.1427 57.7226 94.1427 57.2135C94.1427 56.7043 93.9152 56.2161 93.5102 55.8561C93.1052 55.4961 92.5559 55.2938 91.9831 55.2938H74.7066C74.1338 55.2938 73.5845 55.4961 73.1796 55.8561ZM73.1796 63.5345C73.5845 63.1745 74.1338 62.9723 74.7066 62.9723H91.9831C92.5559 62.9723 93.1052 63.1745 93.5102 63.5345C93.9152 63.8945 94.1427 64.3828 94.1427 64.8919C94.1427 65.401 93.9152 65.8893 93.5102 66.2493C93.1052 66.6093 92.5559 66.8115 91.9831 66.8115H74.7066C74.1338 66.8115 73.5845 66.6093 73.1796 66.2493C72.7746 65.8893 72.547 65.401 72.547 64.8919C72.547 64.3828 72.7746 63.8945 73.1796 63.5345ZM73.1796 80.811C72.7746 81.171 72.547 81.6593 72.547 82.1684C72.547 82.6775 72.7746 83.1658 73.1796 83.5258C73.5845 83.8857 74.1338 84.088 74.7066 84.088H91.9831C92.5559 84.088 93.1052 83.8857 93.5102 83.5258C93.9152 83.1658 94.1427 82.6775 94.1427 82.1684C94.1427 81.6593 93.9152 81.171 93.5102 80.811C93.1052 80.451 92.5559 80.2488 91.9831 80.2488H74.7066C74.1338 80.2488 73.5845 80.451 73.1796 80.811ZM73.1796 88.4895C73.5845 88.1295 74.1338 87.9272 74.7066 87.9272H91.9831C92.5559 87.9272 93.1052 88.1295 93.5102 88.4895C93.9152 88.8494 94.1427 89.3377 94.1427 89.8468C94.1427 90.3559 93.9152 90.8442 93.5102 91.2042C93.1052 91.5642 92.5559 91.7664 91.9831 91.7664H74.7066C74.1338 91.7664 73.5845 91.5642 73.1796 91.2042C72.7746 90.8442 72.547 90.3559 72.547 89.8468C72.547 89.3377 72.7746 88.8494 73.1796 88.4895ZM55.2705 87.9272V82.1684H61.7492V87.9272H55.2705ZM63.9088 78.3292H53.1109C52.5382 78.3292 51.9889 78.5314 51.5839 78.8914C51.1789 79.2514 50.9514 79.7397 50.9514 80.2488V89.8468C50.9514 90.3559 51.1789 90.8442 51.5839 91.2042C51.9889 91.5642 52.5382 91.7664 53.1109 91.7664H63.9088C64.4815 91.7664 65.0308 91.5642 65.4358 91.2042C65.8408 90.8442 66.0683 90.3559 66.0683 89.8468V80.2488C66.0683 79.7397 65.8408 79.2514 65.4358 78.8914C65.0308 78.5314 64.4815 78.3292 63.9088 78.3292ZM68.2013 57.2204C68.2062 57.7237 67.9885 58.2086 67.5951 58.5706L57.4301 67.6062L51.5841 62.4098C51.1907 62.0478 50.9731 61.5629 50.978 61.0596C50.9829 60.5563 51.21 60.0748 51.6104 59.7189C52.0108 59.363 52.5525 59.1611 53.1187 59.1567C53.6849 59.1524 54.2304 59.3458 54.6377 59.6955L57.4301 62.1776L64.5415 55.8563C64.9488 55.5066 65.4943 55.3131 66.0606 55.3175C66.6268 55.3219 67.1684 55.5238 67.5688 55.8797C67.9692 56.2356 68.1964 56.717 68.2013 57.2204Z" fill="#28ABB8"/>
<circle cx="76.9844" cy="76.9842" r="75.7665" stroke="#28ABB8" stroke-width="2"/>
</svg>
