<svg width="154" height="154" viewBox="0 0 154 154" fill="none" xmlns="http://www.w3.org/2000/svg">
<circle cx="76.9845" cy="76.9842" r="75.7665" stroke="#28ABB8" stroke-width="2"/>
<path fill-rule="evenodd" clip-rule="evenodd" d="M12.5455 49.7403C27.6006 14.1431 68.6624 -2.50959 104.26 12.5455C139.857 27.6006 156.51 68.6624 141.454 104.26C126.399 139.857 85.3375 156.509 49.7403 141.454C14.1431 126.399 -2.50956 85.3375 12.5455 49.7403ZM79.4539 106.691H42.835C41.5401 106.691 40.2982 106.177 39.3826 105.261C38.4669 104.346 37.9525 103.104 37.9525 101.809V52.9837C37.9525 51.6888 38.4669 50.4469 39.3826 49.5312C40.2982 48.6156 41.5401 48.1012 42.835 48.1012H111.19C112.485 48.1012 113.727 48.6156 114.643 49.5312C115.558 50.4469 116.073 51.6888 116.073 52.9837V78.2995C112.82 74.1573 108.09 71.4364 102.874 70.7083C97.6578 69.9802 92.3626 71.3015 88.1003 74.3948C83.838 77.4881 80.9401 82.1126 80.0152 87.2972C79.0903 92.4818 80.2104 97.8231 83.1402 102.199L80.8698 104.982L79.4539 106.691ZM50.1588 62.7487V66.6547H91.6601V62.7487H50.1588ZM50.1588 76.4198H77.0126V72.5137H50.1588V76.4198ZM50.1588 93.5085H74.5714V89.6025H50.1588V93.5085ZM113.817 83.664C115.032 85.9334 115.664 88.4688 115.658 91.0429C115.653 93.1407 115.223 95.2158 114.392 97.1421C113.561 99.0683 112.347 100.806 110.824 102.248L115.56 108.034L113.363 116.847L104.428 105.959C101.6 106.795 98.5898 106.795 95.7615 105.959L86.8265 116.847L84.6293 108.034L89.3654 102.248C87.5041 100.47 86.1132 98.258 85.3176 95.81C84.522 93.3619 84.3465 90.7547 84.8069 88.2221C85.2673 85.6896 86.3491 83.3109 87.9554 81.2995C89.5616 79.2881 91.6421 77.7068 94.0101 76.6976C96.378 75.6885 98.9595 75.2829 101.523 75.5172C104.086 75.7516 106.551 76.6186 108.697 78.0405C110.843 79.4624 112.602 81.3947 113.817 83.664ZM91.1649 85.0765C90.0105 86.8501 89.4096 88.9269 89.4386 91.0429H89.463C89.4888 93.8466 90.6224 96.5264 92.6164 98.4975C94.6104 100.469 97.3031 101.571 100.107 101.565C102.223 101.564 104.291 100.935 106.049 99.7561C107.806 98.5772 109.173 96.9023 109.976 94.9444C110.779 92.9865 110.982 90.834 110.558 88.7607C110.135 86.6873 109.104 84.7868 107.597 83.3008C106.091 81.8148 104.176 80.8105 102.097 80.4156C100.018 80.0206 97.8684 80.2529 95.9218 81.0829C93.9752 81.9128 92.3194 83.303 91.1649 85.0765Z" fill="#28ABB8"/>
</svg>
